<svg width="825" height="404" viewBox="0 0 825 404" fill="none" xmlns="http://www.w3.org/2000/svg">
<path d="M63.8835 387.399C53.9274 396.156 30.7439 410.12 17.6588 395.919C4.57363 381.718 1.77644 308.112 2.01349 273.084L4.8581 106.937C5.3322 102.677 6.99155 94.1562 9.83615 94.1562C13.3919 94.1562 18.3699 92.0261 30.4595 90.606C42.549 89.186 65.3058 77.8255 68.1504 77.1154C70.995 76.4054 132.865 46.5841 138.554 44.454C144.243 42.324 199.002 14.6328 215.358 9.66257C231.715 4.69236 258.739 0.432177 282.918 2.56227C302.261 4.26634 316.579 15.1061 321.32 20.313C325.824 25.9932 336.254 43.034 341.943 65.7549C349.055 94.1562 365.411 160.899 366.833 167.289C368.256 173.68 373.234 186.46 377.501 187.88C381.768 189.3 386.034 187.17 381.768 177.23C377.501 167.289 368.256 151.669 369.678 135.338C369.678 128.522 374.893 130.604 377.501 132.498C380.108 135.811 386.746 142.012 392.435 140.308C399.546 138.178 398.124 130.368 392.435 128.948C386.746 127.528 384.612 131.078 381.056 126.818C378.212 123.409 379.871 114.51 381.056 110.487C383.901 110.724 390.159 109.919 392.435 104.807C395.279 98.4163 382.479 93.4461 381.768 97.7063C381.056 101.966 375.367 107.647 392.435 110.487C399.831 113.895 402.154 128.474 402.391 135.338C409.028 169.656 422.588 240.706 423.725 250.363C425.148 262.433 426.57 273.084 418.747 280.184C410.925 287.284 414.48 282.314 414.48 289.414C414.48 295.095 423.962 310.242 428.703 317.106C430.6 318.762 433.824 323.07 431.548 327.046C428.703 332.016 425.859 323.496 428.703 306.455C431.548 289.414 434.393 287.284 431.548 280.184C428.703 273.084 413.769 278.054 410.214 277.344C407.369 276.776 401.443 257.226 398.835 247.523C394.331 236.162 386.034 209.465 388.879 193.56C392.435 173.68 391.724 156.639 386.746 150.249C381.768 143.858 373.234 138.888 377.501 153.089C381.768 167.289 391.724 176.52 395.279 183.62C398.835 190.72 398.124 197.111 395.279 202.791C392.435 208.471 386.746 207.761 386.746 223.382C386.746 239.002 398.835 270.954 404.524 290.835C410.214 310.715 423.725 326.336 423.725 332.726C423.725 339.117 418.036 339.827 412.347 334.856C406.658 329.886 391.724 306.455 366.833 300.065C341.943 293.675 289.318 285.154 265.85 290.835C242.382 296.515 178.379 302.905 77.3954 356.867C34.7264 373.908 34.0152 371.778 27.6149 359.707C21.2145 347.637 14.8142 163.029 17.6588 143.858C20.5034 124.687 21.9257 99.1264 27.6149 99.8364C33.3041 100.546 41.8379 101.256 44.6825 148.118C47.5271 194.98 63.8835 338.809 63.8835 350.477C63.8835 362.145 66.7281 385.979 89.4849 376.038C112.242 366.098 174.823 332.726 191.179 329.886C207.536 327.046 270.25 300.775 341.943 306.455C399.297 310.999 403.769 333.436 398.835 344.087C395.279 349.294 365.696 361.98 275.806 371.068C163.445 382.428 110.819 387.399 100.152 387.399C89.4849 387.399 95.8853 378.878 114.375 376.038C132.865 373.198 255.183 360.417 349.055 368.228C442.926 376.038 426.57 370.358 437.948 354.027C437.948 350.477 442.926 350.477 456.438 349.057C469.95 347.637 775.034 326.336 810.591 337.697C823.392 340.537 830.503 351.187 810.591 363.258C790.679 375.328 582.312 380.298 557.422 381.008C532.531 381.718 452.883 379.588 452.171 361.838C451.46 344.087 470.661 334.856 484.884 334.856C499.107 334.856 567.378 327.046 646.315 327.046C725.253 327.046 799.213 329.176 809.88 324.916C820.547 320.656 829.081 317.816 804.191 282.314C779.3 246.813 755.833 219.831 737.343 199.951C718.853 180.07 670.494 111.907 666.939 104.807C663.383 97.7063 637.07 55.1045 633.515 48.7142C629.959 42.3239 620.714 37.3537 604.357 41.6139C588.001 45.8741 558.133 48.7142 544.621 48.7142C531.109 48.7142 494.129 38.7738 487.729 35.9337C481.329 33.0936 435.104 20.313 402.391 23.1531C376.221 25.4252 360.67 32.6202 356.166 35.9337C352.847 37.5904 346.779 43.744 349.055 55.1045C351.33 66.465 361.855 96.7596 366.833 110.487" stroke="#78A67E" stroke-width="3" stroke-linecap="round"/>
</svg>
