<svg width="234" height="60" viewBox="0 0 234 60" fill="none" xmlns="http://www.w3.org/2000/svg">
<path d="M188.211 30.4721L189.664 18.3251M189.664 18.3251L191.442 3.46435C195.06 2.64594 202.271 2.45641 202.167 8.24563C202.064 14.0348 193.789 17.3774 189.664 18.3251ZM189.664 18.3251L203.46 30.0844" stroke="#78A67E" stroke-width="3.5" stroke-linecap="round" stroke-linejoin="round"/>
<path d="M215.994 3.59359C214.056 12.5531 212.169 30.317 220.129 29.6968C230.08 28.9214 231.113 13.1561 231.889 3.59359C232.664 -5.96896 229.175 30.4721 227.883 34.2196C226.591 39.1301 219.871 44.4282 211.213 36.1579" stroke="#78A67E" stroke-width="3.5" stroke-linecap="round" stroke-linejoin="round"/>
<path d="M62.6057 53.8616C64.6302 54.7231 69.4029 55.4639 72.2975 51.5355C75.9157 46.625 72.039 43.2652 70.876 44.0406C69.713 44.8159 65.9655 49.7264 75.0112 53.8616C78.5002 54.8954 80.3094 50.3725 80.3094 49.5972C80.3094 48.8218 82.2477 44.9451 77.8541 43.0068C73.4605 41.0684 78.6294 53.4739 82.6354 53.8616C86.6413 54.2492 89.7427 52.8278 90.0011 50.3725C90.2596 47.9173 90.7765 43.0068 87.5459 43.0068C84.3153 43.0068 87.4166 53.3447 92.7148 55.4123C98.013 57.4798 101.89 56.446 102.794 54.3785C103.699 52.3109 102.794 44.299 100.339 45.5913C97.8838 46.8835 101.502 58.1259 108.351 58.1259C115.2 58.1259 116.234 51.4063 116.234 49.0803C116.234 46.7543 114.037 43.9113 112.615 46.2374C111.194 48.5634 116.88 55.7999 119.206 56.446C120.369 57.3506 124.116 57.9967 126.184 57.2214C128.251 56.446 131.223 53.8616 130.836 48.8218C130.448 43.7821 126.83 45.9789 126.959 47.5296C127.088 49.0803 127.864 57.0922 134.971 58.5136C140.657 59.6508 141.734 55.3692 141.561 53.0862C141.647 50.3295 140.993 45.0485 137.685 45.9789C133.549 47.1419 144.533 58.1259 145.826 58.5136C147.118 58.9013 151.899 59.8059 153.838 56.446C155.776 53.0862 152.287 47.0127 151.253 46.8835C150.219 46.7543 148.927 46.7543 149.056 49.0803C149.186 51.4063 150.607 58.9013 158.49 58.5136C164.796 58.2035 166.114 51.9232 165.985 48.8218C165.769 46.4527 164.279 42.0505 160.04 43.3945C154.742 45.0744 161.333 50.7602 162.366 51.1479C163.4 51.5355 167.406 56.7045 172.704 55.7999" stroke="#78A67E" stroke-width="2" stroke-linecap="round" stroke-linejoin="round"/>
<path d="M78.3711 30.3429L79.7527 18.1958M79.7527 18.1958L81.4725 3.07667C85.3492 2.60285 92.9734 3.12836 92.4565 9.02096C91.9396 14.9136 83.7719 17.5928 79.7527 18.1958ZM79.7527 18.1958L93.6195 30.3429" stroke="#78A67E" stroke-width="3.5" stroke-linecap="round" stroke-linejoin="round"/>
<path d="M122.566 29.826L125.925 3.85202C130.233 2.51671 138.564 2.94745 137.426 15.3529C136.289 27.7584 127.045 30.1706 122.566 29.826Z" stroke="#78A67E" stroke-width="3.5" stroke-linecap="round" stroke-linejoin="round"/>
<path d="M151.124 4.11047L147.764 30.2136" stroke="#78A67E" stroke-width="3.5" stroke-linecap="round" stroke-linejoin="round"/>
<path d="M159.265 30.0844L164.153 19.6173M176.71 30.0844L174.426 19.6173M174.426 19.6173L171.154 4.62737L164.153 19.6173M174.426 19.6173H164.153" stroke="#78A67E" stroke-width="3.5" stroke-linecap="round" stroke-linejoin="round"/>
<path d="M48.6499 30.4721L53.7401 19.6488M66.2243 30.4721L64.0275 19.6488M64.0275 19.6488L60.9261 4.36893L53.7401 19.6488M64.0275 19.6488H53.7401" stroke="#78A67E" stroke-width="3.5" stroke-linecap="round" stroke-linejoin="round"/>
<path d="M42.4471 3.59358H30.3001L28.6202 17.4205M40.2503 29.9552H27.1987L28.6202 17.4205M28.6202 17.4205H38.8289" stroke="#78A67E" stroke-width="3.5" stroke-linecap="round" stroke-linejoin="round"/>
<path d="M2 29.9552L5.35981 3.59357C9.15037 2.64593 16.809 3.59357 17.1192 14.9653C17.4293 26.3369 7.16895 29.6967 2 29.9552Z" stroke="#78A67E" stroke-width="3.5" stroke-linejoin="round"/>
</svg>
