<svg width="418" height="91" viewBox="0 0 418 91" fill="none" xmlns="http://www.w3.org/2000/svg">
<path d="M1.4999 51.5C3.0999 53.9 19.4999 59.1667 27.4999 61.5V67.5C26.8333 68.5 24.5 67.5 18.5 67.5C5 70.5 8 73.5 10 87C26.5 85.5 48 90.5 56 90.5C64 90.5 154 83.5 166 83C175.6 82.6 264.333 74.5 307.5 70.5C299.167 71 282.4 71.9 282 71.5C281.5 71 266 73.5 258 73.5C251.6 73.5 195.667 77.8333 168.5 80C185.167 76.8333 223.5 70.5 243.5 70.5C274 73 377.5 66.5 384.5 66C390.1 65.6 400.167 59.1667 404.5 56C373.667 57.8333 312.7 60.8 315.5 58C318.3 55.2 380.333 52.5 411 51.5L416.5 46V29.5C416.5 26 418.5 27 414.5 22.5C411.3 18.9 402.833 21 399 22.5C398.5 20.6667 397.5 16.4 397.5 14C387.5 16 350.667 16.8333 333.5 17L400 11.5C399.167 10.1667 397.5 6.8 397.5 4C393.5 1.6 382.5 3 377.5 4C371.5 5.83333 357.1 9.5 347.5 9.5H296.5H266C258.5 10.1667 239 11.5 221 11.5C198.5 11.5 173 14 168.5 14C164.9 14 137.667 17.6667 124.5 19.5C117.833 20.1667 99.5 21.5 79.5 21.5C26.7 22.7 5.49993 29.6667 1.4999 33C0.833231 38.1667 -0.100102 49.1 1.4999 51.5Z" fill="#78A67E" stroke="#78A67E"/>
<path d="M274.5 20V57" stroke="#373737" stroke-width="6" stroke-linecap="round" stroke-linejoin="round"/>
<path d="M33 56.5V4.5C46.5 3.5 67.5 -3.8147e-06 69.5 31C71.1 55.8 45.8333 58.3333 33 56.5Z" stroke="#373737" stroke-width="6" stroke-linejoin="round"/>
<path d="M81.9999 37.5H113.5C114 31.3333 111.7 19 98.4999 19C81.9999 19 81.9999 34 81.9999 37.5ZM81.9999 37.5C81.8332 44.5 84.6999 58.2 97.4999 57C109 55.9219 110 53 111.5 51" stroke="#373737" stroke-width="6" stroke-linecap="round" stroke-linejoin="round"/>
<path d="M126.5 24.5C129.667 21.5 138.2 16.4 147 20C158 24.5 153 46.5 154 58.5V45.5M154 45.5V35C143.833 36.1667 123.8 40.5 125 48.5C126.5 58.5 135.5 58.5 140.5 57.5C144.5 56.7 151.167 49.1667 154 45.5Z" stroke="#373737" stroke-width="6" stroke-linecap="round" stroke-linejoin="round"/>
<path d="M292.552 23.7382C295.718 20.7382 304.252 15.6382 313.052 19.2382C324.052 23.7382 319.052 45.7382 320.052 57.7382V44.7382M320.052 44.7382V34.2382C309.885 35.4049 289.852 39.7382 291.052 47.7382C292.552 57.7382 301.552 57.7382 306.552 56.7382C310.552 55.9382 317.218 48.4049 320.052 44.7382Z" stroke="#373737" stroke-width="6" stroke-linecap="round" stroke-linejoin="round"/>
<path d="M171 20V29.5M171 57V29.5M171 29.5C173.167 25.6667 179.7 18.2 188.5 19" stroke="#373737" stroke-width="6" stroke-linecap="round" stroke-linejoin="round"/>
<path d="M337 21.0595V30.5595M337 58.0595V30.5595M337 30.5595C339.167 26.7262 345.7 19.2595 354.5 20.0595" stroke="#373737" stroke-width="6" stroke-linecap="round" stroke-linejoin="round"/>
<path d="M362 20L377 56.5M377 56.5L391 20M377 56.5C375 61.5 373 69.5 364.5 73.5" stroke="#373737" stroke-width="6" stroke-linecap="round" stroke-linejoin="round"/>
<path d="M221.5 55.5V5C225.5 5 255 -1.5 256 30.5C256.8 56.1 233.333 57.8333 221.5 55.5Z" stroke="#373737" stroke-width="6" stroke-linecap="round" stroke-linejoin="round"/>
<path d="M274.5 5L277 8M277 8V3H273L271.5 8H277Z" stroke="#373737" stroke-width="6" stroke-linecap="round" stroke-linejoin="round"/>
</svg>
